<svg width="582" height="179" viewBox="0 0 582 179" fill="none" xmlns="http://www.w3.org/2000/svg">
<path d="M5.2 174.7C5.2 175.073 5.34 175.26 5.62 175.26C8.32667 175.26 17.1467 167.093 32.08 150.76C46.92 134.52 62.88 115.76 79.96 94.48C65.7733 103.907 52.6133 113.94 40.48 124.58C26.0133 137.087 15.8867 148.52 10.1 158.88C6.83333 164.76 5.2 170.033 5.2 174.7ZM2.26 178.34C1.32666 178.34 0.859996 177.733 0.859996 176.52C0.859996 170.267 3.47333 163.22 8.7 155.38C13.8333 147.54 20.6933 139.747 29.28 132C44.96 117.627 62.7867 104 82.76 91.12C97.9733 71.9867 110.48 55.14 120.28 40.58C130.173 25.9267 135.12 16.3133 135.12 11.74C135.12 10.34 134.887 9.49999 134.42 9.21999C134.047 8.94 133.067 8.8 131.48 8.8C124.48 8.8 115.94 11.5067 105.86 16.92C95.8733 22.24 86.6333 28.4933 78.14 35.68C69.6467 42.7733 62.3667 50.0533 56.3 57.52C50.2333 64.9867 47.2 70.7267 47.2 74.74C47.2 78.1933 49.44 79.92 53.92 79.92C58.4 79.92 64.2333 78.0533 71.42 74.32C78.6067 70.5867 84.72 66.8533 89.76 63.12L97.46 57.52L98.72 57.8C92.56 63.2133 85.28 68.3467 76.88 73.2C73.3333 75.2533 69.2733 77.1667 64.7 78.94C60.22 80.62 56.3 81.46 52.94 81.46C47.4333 81.46 44.68 79.1267 44.68 74.46C44.68 69.7933 47.34 63.68 52.66 56.12C57.98 48.4667 64.6533 41 72.68 33.72C80.7067 26.3467 90.0867 20 100.82 14.68C111.553 9.35999 121.633 6.69999 131.06 6.69999C133.393 6.69999 134.933 7.16666 135.68 8.1C136.427 9.03333 136.8 10.6667 136.8 13C136.8 25.04 123.313 48.28 96.34 82.72C102.873 78.7067 106.42 76.7 106.98 76.7C107.633 76.7 107.96 76.84 107.96 77.12C107.96 77.4 107.773 77.68 107.4 77.96C104.88 79.08 100.493 81.5533 94.24 85.38C76.1333 108.153 57.42 129.34 38.1 148.94C18.78 168.54 6.83333 178.34 2.26 178.34ZM136.249 75.02C136.249 74.74 136.062 74.6 135.689 74.6C133.169 74.6 129.249 76.7933 123.929 81.18C118.609 85.5667 113.989 90.3733 110.069 95.6C114.735 94.1067 120.242 90.7467 126.589 85.52C133.029 80.2933 136.249 76.7933 136.249 75.02ZM103.909 108.06C103.909 109.273 104.375 109.88 105.309 109.88C106.429 109.88 108.949 109.133 112.869 107.64C116.789 106.053 120.009 104.513 122.529 103.02L136.249 94.34L136.389 96.16C126.589 102.693 119.262 106.847 114.409 108.62C109.649 110.393 106.475 111.28 104.889 111.28C102.275 111.28 100.969 109.647 100.969 106.38C100.969 101.993 102.555 97.6067 105.729 93.22C108.902 88.8333 112.589 85.24 116.789 82.44C121.082 79.64 125.189 77.3533 129.109 75.58C133.122 73.8067 136.155 72.92 138.209 72.92C140.262 72.92 141.289 73.62 141.289 75.02C141.289 78.4733 137.182 82.6733 128.969 87.62C120.849 92.5667 114.082 95.8333 108.669 97.42C105.495 101.993 103.909 105.54 103.909 108.06ZM206.179 117.86C209.725 117.86 213.645 115.013 217.939 109.32C222.232 103.627 226.199 96.6267 229.839 88.32C233.479 79.92 236.839 71.2867 239.919 62.42C243.092 53.5533 245.565 45.6667 247.339 38.76C249.112 31.76 249.999 27.6067 249.999 26.3C249.999 24.9933 249.905 24.34 249.719 24.34C248.879 24.34 243.559 29.52 233.759 39.88C223.959 50.1467 216.165 58.1733 210.379 63.96C204.592 69.7467 197.825 76.1867 190.079 83.28C174.025 97.84 155.732 110.767 135.199 122.06C134.639 122.34 134.079 122.48 133.519 122.48C132.959 122.48 132.679 122.293 132.679 121.92C132.679 121.547 133.005 121.22 133.659 120.94C147.472 113.847 161.145 104.747 174.679 93.64C188.585 82.16 199.832 72.08 208.419 63.4C217.005 54.6267 223.539 47.86 228.019 43.1C232.499 38.34 237.819 32.6467 243.979 26.02C250.232 19.3933 254.992 14.3533 258.259 10.9C258.819 10.34 259.285 10.06 259.659 10.06C260.032 10.06 260.219 10.34 260.219 10.9C260.219 13.7933 259.332 19.2067 257.559 27.14C255.785 35.0733 253.172 44.3133 249.719 54.86C246.265 65.3133 242.392 75.3933 238.099 85.1C233.805 94.8067 228.719 103.02 222.839 109.74C216.959 116.367 211.079 119.68 205.199 119.68C201.559 119.68 198.665 117.767 196.519 113.94C194.465 110.207 193.439 105.307 193.439 99.24C193.439 93.08 194.932 87.4333 197.919 82.3C198.665 80.9933 199.319 80.34 199.879 80.34C200.345 80.34 200.672 80.7133 200.859 81.46C199.925 83.0467 199.085 85.8 198.339 89.72C197.592 93.5467 197.219 97.42 197.219 101.34C197.219 112.353 200.205 117.86 206.179 117.86ZM264.345 80.76C265.185 79.7333 266.165 78.4267 267.285 76.84C268.405 75.2533 269.339 74.46 270.085 74.46C270.832 74.46 271.625 75.16 272.465 76.56C272.465 78.24 268.219 83.7467 259.725 93.08C251.325 102.413 247.125 107.5 247.125 108.34C247.125 108.527 247.405 108.62 247.965 108.62C248.525 108.62 251.792 106.707 257.765 102.88C270.272 94.8533 281.052 86.0333 290.105 76.42C292.345 74.3667 294.305 73.34 295.985 73.34C296.079 73.34 296.172 73.34 296.265 73.34C298.039 73.4333 298.925 73.6667 298.925 74.04L298.785 74.32C294.772 78.0533 288.799 84.3533 280.865 93.22C272.932 102.087 268.965 107.313 268.965 108.9C268.965 109.273 269.245 109.46 269.805 109.46C270.459 109.46 276.852 105.633 288.985 97.98L294.725 94.34L294.865 96.02C293.745 96.7667 292.299 97.7 290.525 98.82C276.619 107.593 268.499 111.98 266.165 111.98C265.325 111.98 264.905 111.513 264.905 110.58C264.905 109.647 266.025 106.987 268.265 102.6C270.599 98.2133 272.279 95.4133 273.305 94.2L271.065 95.46C256.972 105.54 248.525 110.58 245.725 110.58C244.605 110.58 244.045 109.973 244.045 108.76C244.045 107.453 244.559 105.82 245.585 103.86C246.612 101.807 247.545 100.173 248.385 98.96C249.319 97.7467 250.672 96.1133 252.445 94.06C254.219 91.9133 255.152 90.7933 255.245 90.7L244.325 97.14L243.905 95.6L248.665 92.66C256.785 87.4333 262.012 83.4667 264.345 80.76ZM324.777 64.38C323.191 64.38 322.397 63.68 322.397 62.28C322.397 60.7867 323.097 59.3867 324.497 58.08C325.897 56.7733 327.064 56.12 327.997 56.12C329.024 56.12 329.771 56.4 330.237 56.96C330.797 57.52 331.077 58.1733 331.077 58.92C331.077 59.6667 330.424 60.7867 329.117 62.28C327.811 63.68 326.364 64.38 324.777 64.38ZM289.357 108.62C290.384 106.287 294.491 100.967 301.677 92.66C308.957 84.3533 314.464 78.3333 318.197 74.6C318.757 73.8533 319.037 73.34 319.037 73.06C319.037 72.6867 318.664 72.4533 317.917 72.36L314.697 72.08C313.951 72.08 313.251 72.4533 312.597 73.2C306.251 79.64 300.231 86.6867 294.537 94.34C288.937 101.9 286.137 106.613 286.137 108.48C286.137 110.253 286.697 111.14 287.817 111.14C289.311 111.14 292.344 109.927 296.917 107.5C301.491 104.98 305.691 102.46 309.517 99.94L315.257 96.16L315.117 94.34C300.091 104.233 291.737 109.18 290.057 109.18C289.591 109.18 289.357 108.993 289.357 108.62ZM315.459 96.16C314.992 96.44 314.432 96.8133 313.779 97.28L313.359 95.6C323.905 88.88 332.492 83.6533 339.119 79.92L342.899 77.68C344.299 76.56 345.839 75.2533 347.519 73.76C351.065 70.96 352.932 69.6067 353.119 69.7C353.585 69.7 353.819 69.9333 353.819 70.4C353.819 70.7733 353.445 71.4733 352.699 72.5C351.952 73.4333 350.879 74.5533 349.479 75.86C348.172 77.1667 347.379 78.0067 347.099 78.38C345.699 79.78 343.365 84.26 340.099 91.82C336.925 99.2867 335.199 103.3 334.919 103.86C334.919 104.233 335.012 104.42 335.199 104.42C335.479 104.42 335.665 104.373 335.759 104.28L351.439 94.34L351.579 96.16C350.459 96.8133 348.592 97.98 345.979 99.66C343.365 101.34 341.499 102.507 340.379 103.16C339.352 103.813 337.812 104.793 335.759 106.1C333.705 107.313 332.119 108.2 330.999 108.76C329.879 109.32 328.572 109.973 327.079 110.72C323.252 111.84 320.825 112.4 319.799 112.4C319.705 112.4 319.659 112.4 319.659 112.4C317.139 112.4 315.085 111.653 313.499 110.16C311.912 108.667 311.119 106.94 311.119 104.98C311.119 103.02 311.772 101.34 313.079 99.94C314.479 98.54 316.112 97.84 317.979 97.84C319.845 97.84 320.779 98.5867 320.779 100.08C320.779 100.92 320.452 101.713 319.799 102.46C319.239 103.207 318.492 103.58 317.559 103.58C316.719 103.58 316.205 103.16 316.019 102.32C315.925 101.48 315.692 101.06 315.319 101.06C314.665 101.06 314.105 101.387 313.639 102.04C313.265 102.693 313.079 103.627 313.079 104.84C313.079 106.053 313.639 107.267 314.759 108.48C315.879 109.6 317.465 110.16 319.519 110.16C321.572 110.16 323.485 109.413 325.259 107.92C327.125 106.427 328.385 105.12 329.039 104C329.692 102.88 331.092 99.7533 333.239 94.62C335.385 89.3933 337.625 85.2867 339.959 82.3L340.239 81.74C340.239 81.6467 340.099 81.6 339.819 81.6C339.072 81.6 332.865 85.24 321.199 92.52L315.459 96.16ZM487.034 3.62C487.034 2.78 486.567 2.36 485.634 2.36C481.994 2.36 473.501 9.36 460.154 23.36C466.501 22.24 472.567 19.3 478.354 14.54C484.141 9.78 487.034 6.14 487.034 3.62ZM451.754 76.14L416.754 75.3H415.914C396.781 99.5667 387.214 113.24 387.214 116.32C387.214 116.6 387.307 116.74 387.494 116.74C387.774 116.74 388.054 116.647 388.334 116.46C388.707 116.273 389.081 116.04 389.454 115.76C389.921 115.573 390.294 115.387 390.574 115.2C390.854 115.013 391.041 114.92 391.134 114.92C391.227 114.92 391.274 115.06 391.274 115.34C391.274 116.367 389.641 118.047 386.374 120.38C383.201 122.713 381.007 123.88 379.794 123.88C378.301 123.88 377.554 122.853 377.554 120.8C377.554 118.747 380.401 113.473 386.094 104.98C391.881 96.4867 399.301 86.5933 408.354 75.3L379.514 75.44C378.301 75.44 377.694 75.1133 377.694 74.46C377.694 73.34 378.301 72.4533 379.514 71.8C380.727 71.1467 382.081 70.82 383.574 70.82C391.601 70.82 400.841 71.1 411.294 71.66C425.294 54.3933 439.014 38.9467 452.454 25.32C447.041 25.2267 442.141 24.3867 437.754 22.8C433.461 21.12 430.147 19.3467 427.814 17.48C421.467 12.44 415.261 9.91999 409.194 9.91999C403.221 9.91999 397.527 12.72 392.114 18.32C386.701 23.92 383.994 28.4933 383.994 32.04C383.994 33.16 384.461 33.72 385.394 33.72C388.007 33.72 391.181 31.7133 394.914 27.7C398.741 23.6867 401.401 19.9067 402.894 16.36C403.267 15.52 403.594 15.1 403.874 15.1C404.434 15.1 404.714 15.3333 404.714 15.8C404.714 18.4133 402.101 22.4733 396.874 27.98C391.741 33.3933 387.354 36.1 383.714 36.1C381.101 36.1 379.794 34.9333 379.794 32.6C379.794 28.0267 383.387 22.66 390.574 16.5C397.761 10.2467 405.741 7.11999 414.514 7.11999C417.501 7.11999 421.234 8.37999 425.714 10.9C430.194 13.3267 435.001 15.94 440.134 18.74C445.361 21.54 450.074 23.1733 454.274 23.64C469.954 8.14666 480.594 0.399997 486.194 0.399997C488.434 0.399997 489.554 1.24 489.554 2.92C489.554 6.18666 486.287 10.3867 479.754 15.52C473.314 20.56 466.314 23.6867 458.754 24.9C447.181 37.22 433.787 52.9 418.574 71.94C428.747 72.4067 439.901 73.1067 452.034 74.04C453.807 74.04 454.787 74.3667 454.974 75.02C454.974 75.7667 453.901 76.14 451.754 76.14ZM513.008 18.88C510.208 18.88 499.895 27.84 482.068 45.76C464.242 63.68 450.708 79.0333 441.468 91.82C450.055 85.2867 464.148 72.5 483.748 53.46C503.442 34.3267 513.288 22.94 513.288 19.3C513.288 19.1133 513.195 18.9733 513.008 18.88ZM515.668 16.36C516.508 16.36 516.928 16.8733 516.928 17.9C516.928 22.38 506.895 34.3267 486.828 53.74C466.855 73.06 450.988 86.8267 439.228 95.04C435.122 100.92 433.068 105.167 433.068 107.78C433.068 108.62 433.255 109.04 433.628 109.04C437.455 109.04 444.315 105.96 454.208 99.8L462.608 94.34L462.748 96.16C460.415 97.6533 457.755 99.3333 454.768 101.2C443.942 107.92 436.428 111.28 432.228 111.28C431.108 111.28 430.548 110.393 430.548 108.62C430.548 103.207 434.328 95.2267 441.888 84.68C449.448 74.04 458.082 63.7733 467.788 53.88C477.588 43.8933 487.155 35.1667 496.488 27.7C505.915 20.14 512.308 16.36 515.668 16.36ZM492.941 64.38C491.355 64.38 490.561 63.68 490.561 62.28C490.561 60.7867 491.261 59.3867 492.661 58.08C494.061 56.7733 495.228 56.12 496.161 56.12C497.188 56.12 497.935 56.4 498.401 56.96C498.961 57.52 499.241 58.1733 499.241 58.92C499.241 59.6667 498.588 60.7867 497.281 62.28C495.975 63.68 494.528 64.38 492.941 64.38ZM457.521 108.62C458.548 106.287 462.655 100.967 469.841 92.66C477.121 84.3533 482.628 78.3333 486.361 74.6C486.921 73.8533 487.201 73.34 487.201 73.06C487.201 72.6867 486.828 72.4533 486.081 72.36L482.861 72.08C482.115 72.08 481.415 72.4533 480.761 73.2C474.415 79.64 468.395 86.6867 462.701 94.34C457.101 101.9 454.301 106.613 454.301 108.48C454.301 110.253 454.861 111.14 455.981 111.14C457.475 111.14 460.508 109.927 465.081 107.5C469.655 104.98 473.855 102.46 477.681 99.94L483.421 96.16L483.281 94.34C468.255 104.233 459.901 109.18 458.221 109.18C457.755 109.18 457.521 108.993 457.521 108.62ZM525.906 90.14L527.026 91.4C522.733 94.0133 519.233 96.2067 516.526 97.98C513.819 99.7533 511.766 100.64 510.366 100.64C508.313 100.64 507.286 99.7533 507.286 97.98C507.286 96.6733 507.986 94.1067 509.386 90.28C510.879 86.36 511.906 83.6067 512.466 82.02L512.046 81.6C511.673 81.6 511.253 81.7867 510.786 82.16C501.359 89.72 495.246 94.8067 492.446 97.42C489.739 100.033 487.079 102.833 484.466 105.82C481.946 108.807 480.546 110.44 480.266 110.72C480.079 111 479.939 111.187 479.846 111.28C479.566 111.56 478.633 111.7 477.046 111.7C475.366 111.7 474.526 111.56 474.526 111.28C474.713 111 475.879 109.693 478.026 107.36C483.253 101.667 487.966 96.2067 492.166 90.98L488.106 93.36C483.813 95.9733 480.686 97.9333 478.726 99.24L478.166 97.7L486.986 92.1C490.159 90.0467 492.866 87.9 495.106 85.66C497.439 83.42 499.026 81.6 499.866 80.2C500.706 78.8 501.453 77.6333 502.106 76.7C502.759 75.7667 503.366 75.3 503.926 75.3C504.486 75.3 505.373 75.6267 506.586 76.28C506.586 77.2133 505.839 78.8467 504.346 81.18C502.853 83.5133 501.359 85.6133 499.866 87.48L497.626 90.14C497.626 90.3267 497.673 90.42 497.766 90.42C498.046 90.42 498.373 90.28 498.746 90C499.119 89.6267 500.659 88.32 503.366 86.08C506.166 83.7467 508.593 81.7867 510.646 80.2C512.699 78.52 515.033 76.9333 517.646 75.44C520.353 73.9467 522.313 73.2 523.526 73.2C524.739 73.2 525.346 73.48 525.346 74.04C525.346 74.7867 523.059 76.3733 518.486 78.8C517.459 79.36 515.873 82.0667 513.726 86.92C511.673 91.68 510.646 95.18 510.646 97.42C510.646 97.8867 511.066 98.12 511.906 98.12C512.839 98.12 514.613 97.28 517.226 95.6L525.906 90.14ZM543.438 96.02C528.784 106.007 519.451 111 515.438 111C514.411 111 513.898 110.673 513.898 110.02C513.898 107.407 517.258 101.48 523.978 92.24C530.698 83 538.444 73.2 547.218 62.84C538.258 62.6533 532.751 62.56 530.698 62.56C528.644 62.56 527.618 62.0467 527.618 61.02C527.618 60.6467 528.038 60.46 528.878 60.46L548.898 60.88C560.284 47.5333 566.584 40.86 567.798 40.86C570.318 40.86 571.578 41.28 571.578 42.12C571.578 42.8667 566.398 49.1667 556.038 61.02L579.558 61.44C580.771 61.44 581.378 61.6267 581.378 62C581.378 62.28 581.191 62.4667 580.818 62.56C580.258 62.84 575.638 62.98 566.958 62.98H554.358C548.291 69.8867 543.858 74.9267 541.058 78.1C538.258 81.18 534.618 85.3333 530.138 90.56C521.831 100.267 517.678 106.053 517.678 107.92C517.678 108.293 518.004 108.48 518.658 108.48C519.404 108.48 521.784 107.407 525.798 105.26C529.811 103.02 532.844 101.153 534.898 99.66L543.298 94.48L543.438 96.02Z" fill="white"/>
</svg>
